<svg xmlns="http://www.w3.org/2000/svg" xmlns:xlink="http://www.w3.org/1999/xlink" width="720" height="76" viewBox="0 0 720 76"><defs><clipPath id="a"><rect width="716" height="72" fill="none"/></clipPath><clipPath id="c"><rect width="720" height="76"/></clipPath></defs><g id="b" clip-path="url(#c)"><g transform="translate(2 2)"><path d="M0,0V55.279H14.415v-41Z" fill="#005dac"/><path d="M0,57.382,14.413,71.661H53.195L38.782,57.382Z" fill="#6296d0"/><path d="M29.274,0,43.687,14.279H92.44L78.027,0Z" fill="#6296d0"/><path d="M58.155,16.445v41L72.568,71.724V16.445Z" fill="#005dac"/><path d="M97.438,55.29h14.413v-41L97.438.012Z" fill="#005dac"/><path d="M97.437,57.394,111.85,71.672h38.781L136.219,57.394Z" fill="#6296d0"/><rect width="71.88" height="4.835" transform="translate(161.592 57.258)" fill="#6296d0"/><path d="M248.1,49.8V71.643h13.769V67.5H253.1V49.8Z" fill="#6296d0"/><rect width="5.004" height="21.839" transform="translate(270.541 49.805)" fill="#6296d0"/><g clip-path="url(#a)"><path d="M290.792,71.644l-7.065-21.839h5.462l2.682,9.234c.752,2.593,1.439,5.088,1.962,7.81h.1c.556-2.626,1.243-5.217,1.995-7.712l2.812-9.332h5.3l-7.425,21.839Z" fill="#6296d0"/><path d="M325.239,62.409h-8.111v5.184h9.06v4.05H312.124V49.8H325.73v4.05h-8.6v4.537h8.111Z" fill="#6296d0"/><path d="M351.447,53.952h-5.92V49.8h16.942v4.147H356.45V71.644h-5Z" fill="#6296d0"/><path d="M375.854,49.8V58.2h8.21V49.8h4.971V71.643h-4.971V62.505h-8.21v9.138h-5V49.8Z" fill="#6296d0"/><path d="M412.232,62.409h-8.111v5.184h9.059v4.05H399.117V49.8h13.606v4.05h-8.6v4.537h8.111Z" fill="#6296d0"/><path d="M435.464,49.8h5V67.5h8.766v4.147H435.464Z" fill="#6296d0"/><path d="M463.238,66.038l-1.569,5.6H456.5L463.238,49.8h6.541l6.836,21.839h-5.364l-1.7-5.6Zm5.593-3.694-1.374-4.634c-.392-1.3-.785-2.916-1.112-4.211h-.065c-.327,1.295-.654,2.948-1.014,4.211l-1.308,4.634Z" fill="#6296d0"/><path d="M485.291,71.644V49.805h5.821l4.579,8a63.155,63.155,0,0,1,3.6,7.485h.1a80.3,80.3,0,0,1-.425-9.1V49.805h4.579V71.644h-5.234L493.6,63.219a80.883,80.883,0,0,1-3.826-7.711l-.1.032c.131,2.884.2,5.962.2,9.526v6.578Z" fill="#6296d0"/><path d="M532,70.639a24.9,24.9,0,0,1-7.359,1.231c-4.022,0-6.933-1-8.961-2.948a10.515,10.515,0,0,1-3.107-7.939c.033-7.258,5.363-11.405,12.592-11.405a15.293,15.293,0,0,1,6.115,1.069L530.238,54.6a12.321,12.321,0,0,0-5.135-.94c-4.153,0-7.293,2.333-7.293,7.064,0,4.5,2.845,7.161,6.933,7.161a6.739,6.739,0,0,0,2.453-.324V62.992h-3.4V59.136H532Z" fill="#6296d0"/><path d="M545.786,49.8V62.376c0,3.759,1.438,5.67,3.99,5.67,2.617,0,4.055-1.814,4.055-5.67V49.8H558.8V62.052c0,6.74-3.434,9.948-9.189,9.948-5.56,0-8.831-3.046-8.831-10.013V49.8Z" fill="#6296d0"/><path d="M573.007,66.038l-1.569,5.6H566.27L573.007,49.8h6.541l6.836,21.839H581.02l-1.7-5.6Zm5.593-3.694-1.374-4.634c-.392-1.3-.785-2.916-1.112-4.211h-.065c-.327,1.295-.654,2.948-1.014,4.211l-1.308,4.634Z" fill="#6296d0"/><path d="M612.654,70.639a24.892,24.892,0,0,1-7.359,1.231c-4.022,0-6.933-1-8.961-2.948a10.515,10.515,0,0,1-3.107-7.939c.033-7.258,5.363-11.405,12.592-11.405a15.294,15.294,0,0,1,6.115,1.069L610.888,54.6a12.321,12.321,0,0,0-5.135-.94c-4.153,0-7.293,2.333-7.293,7.064,0,4.5,2.845,7.161,6.933,7.161a6.739,6.739,0,0,0,2.453-.324V62.992h-3.4V59.136h8.209Z" fill="#6296d0"/><path d="M635.394,62.409h-8.111v5.184h9.059v4.05H622.279V49.8h13.606v4.05h-8.6v4.537h8.111Z" fill="#6296d0"/><rect width="65.375" height="4.835" transform="translate(650.625 57.258)" fill="#6296d0"/><path d="M694.068,35.354H716V28.748H702.037V.568h-7.969ZM671.978,6.245c5.471,0,8.492,5.367,8.492,11.612,0,6.761-3.074,11.819-8.439,11.819-5.315,0-8.544-4.8-8.544-11.612,0-6.762,3.125-11.819,8.491-11.819M672.187,0C661.819,0,655.1,7.792,655.1,18.218c0,9.909,6.095,17.7,16.515,17.7,10.264,0,17.243-6.917,17.243-18.322,0-9.6-5.886-17.6-16.67-17.6M634.625,6.245c5.471,0,8.492,5.367,8.492,11.612,0,6.761-3.073,11.819-8.439,11.819-5.315,0-8.545-4.8-8.545-11.612,0-6.762,3.126-11.819,8.492-11.819M634.834,0c-10.367,0-17.088,7.792-17.088,18.218,0,9.909,6.1,17.7,16.515,17.7,10.263,0,17.244-6.917,17.244-18.322,0-9.6-5.888-17.6-16.671-17.6M583.467.568V35.354h7.97V20.8h13.077V35.354h7.919V.568h-7.919V13.934H591.437V.568Zm-6.408,27.663a19.984,19.984,0,0,1-6.615,1.135c-7.086,0-11.255-4.386-11.255-11.355,0-7.741,4.9-11.509,11.2-11.509a17.281,17.281,0,0,1,6.668,1.29l1.615-6.245A20.887,20.887,0,0,0,570.026,0C559.4,0,550.855,6.606,550.855,18.476c0,9.911,6.251,17.395,18.39,17.395a22.813,22.813,0,0,0,9.013-1.5Zm-54.075,5.523a23.163,23.163,0,0,0,9.949,2.117c9.639,0,14.171-4.956,14.171-10.787,0-4.9-2.917-8.1-9.116-10.376-4.533-1.7-6.512-2.684-6.512-4.9,0-1.807,1.666-3.356,5.1-3.356A16.823,16.823,0,0,1,543.926,8.1L545.7,1.754A21.692,21.692,0,0,0,536.737,0c-8.284,0-13.284,4.542-13.284,10.477,0,5.057,3.8,8.258,9.637,10.27,4.221,1.5,5.887,2.735,5.887,4.9,0,2.271-1.928,3.768-5.575,3.768a20.413,20.413,0,0,1-8.8-2.168Z" fill="#005dac"/><path d="M161.593.364h7.942V28.707h13.912v6.644H161.593Z" fill="#005dac"/><path d="M189.47,7.008h-9.4V.364h26.89V7.008h-9.552V35.351H189.47Z" fill="#005dac"/><path d="M211.169.364h7.942V28.707h13.912v6.644H211.169Z" fill="#005dac"/><path d="M248.183.364h7.942V28.707h13.912v6.644H248.183Z" fill="#005dac"/><path d="M283.171,26.371l-2.491,8.98h-8.2L283.171.364h10.383L304.4,35.351H295.89l-2.7-8.98Zm8.877-5.918-2.18-7.423c-.623-2.076-1.246-4.672-1.765-6.748H288c-.518,2.076-1.038,4.724-1.609,6.748l-2.076,7.423Z" fill="#005dac"/><path d="M309.076,35.351V.364h9.24l7.267,12.821a101.35,101.35,0,0,1,5.71,11.992h.156a130.22,130.22,0,0,1-.675-14.639V.364h7.267V35.351h-8.3l-7.475-13.5A129.862,129.862,0,0,1,316.188,9.5l-.156.052c.207,4.62.311,9.551.311,15.261V35.351Z" fill="#005dac"/><path d="M374.121,33.742a39.144,39.144,0,0,1-11.679,1.972c-6.386,0-11-1.609-14.224-4.723-3.218-3.011-4.983-7.579-4.931-12.718C343.339,6.645,351.8,0,363.272,0a24.073,24.073,0,0,1,9.707,1.713l-1.661,6.333a19.381,19.381,0,0,0-8.15-1.506c-6.592,0-11.575,3.738-11.575,11.317,0,7.215,4.516,11.472,11,11.472a10.6,10.6,0,0,0,3.893-.519v-7.32h-5.4V15.314h13.029Z" fill="#005dac"/><path d="M388.191.364V20.5c0,6.021,2.284,9.084,6.333,9.084,4.153,0,6.437-2.907,6.437-9.084V.364h7.89V19.986c0,10.8-5.451,15.936-14.587,15.936-8.824,0-14.015-4.879-14.015-16.04V.364Z" fill="#005dac"/><path d="M422.3,26.371l-2.491,8.98h-8.2L422.3.364H432.68l10.849,34.987h-8.513l-2.7-8.98Zm8.877-5.918-2.18-7.423c-.623-2.076-1.246-4.672-1.765-6.748h-.1c-.518,2.076-1.038,4.724-1.609,6.748l-2.076,7.423Z" fill="#005dac"/><path d="M476.13,33.742a39.144,39.144,0,0,1-11.679,1.972c-6.386,0-11-1.609-14.224-4.723-3.218-3.011-4.983-7.579-4.931-12.718C445.348,6.645,453.809,0,465.281,0a24.073,24.073,0,0,1,9.707,1.713l-1.661,6.333a19.381,19.381,0,0,0-8.15-1.506c-6.592,0-11.575,3.738-11.575,11.317,0,7.215,4.516,11.472,11,11.472a10.6,10.6,0,0,0,3.893-.519v-7.32h-5.4V15.314H476.13Z" fill="#005dac"/><path d="M503.125,20.556H490.251v8.306h14.38V35.35H482.309V.363h21.6V6.852H490.251v7.267h12.874Z" fill="#005dac"/></g></g></g></svg>