<svg xmlns="http://www.w3.org/2000/svg" xmlns:xlink="http://www.w3.org/1999/xlink" width="701" height="100" viewBox="0 0 701 100"><defs><clipPath id="a"><rect width="697.395" height="97" fill="none"/></clipPath><clipPath id="c"><rect width="701" height="100"/></clipPath></defs><g id="b" clip-path="url(#c)"><g transform="translate(0 3)"><path d="M0,0V74.572H19.265V19.263Z" transform="translate(0.001)" fill="#005dac"/><path d="M0,55.964,19.263,75.227H71.093L51.831,55.964Z" transform="translate(0 21.446)" fill="#6296d0"/><path d="M28.285,0,47.548,19.263h65.159L93.445,0Z" transform="translate(10.839)" fill="#6296d0"/><path d="M56.191,16.039V71.347L75.453,90.611V16.038Z" transform="translate(21.533 6.146)" fill="#005dac"/><path d="M94.146,74.583h19.263V19.273L94.146.011Z" transform="translate(36.079 0.004)" fill="#005dac"/><path d="M94.145,55.975l19.263,19.263h51.831L145.976,55.975Z" transform="translate(36.078 21.451)" fill="#6296d0"/><rect width="62.722" height="4.259" transform="translate(213.618 84.016)" fill="#6296d0"/><path d="M209.006,55.993V75.229h12.015V71.575h-7.649V55.993Z" transform="translate(80.095 21.458)" fill="#6296d0"/><rect width="4.365" height="19.236" transform="translate(308.686 77.45)" fill="#6296d0"/><g transform="translate(0 0)"><g clip-path="url(#a)"><path d="M237.648,75.228l-6.165-19.235h4.767l2.34,8.133c.656,2.284,1.256,4.48,1.712,6.877h.086c.486-2.311,1.084-4.594,1.74-6.792l2.455-8.219h4.623l-6.479,19.235Z" transform="translate(88.709 21.457)" fill="#6296d0"/><path d="M260.842,67.095h-7.078v4.566h7.905v3.567H249.4V55.993H261.27V59.56h-7.507v3.995h7.078Z" transform="translate(95.574 21.457)" fill="#6296d0"/><path d="M275.635,59.646H270.47V55.993h14.782v3.653H280V75.228h-4.365Z" transform="translate(103.65 21.457)" fill="#6296d0"/><path d="M290.811,55.993v7.392h7.164V55.993h4.338V75.228h-4.338V67.18h-7.164v8.048h-4.367V55.993Z" transform="translate(109.771 21.457)" fill="#6296d0"/><path d="M315.721,67.095h-7.078v4.566h7.905v3.567H304.277V55.993H316.15V59.56h-7.507v3.995h7.078Z" transform="translate(116.605 21.457)" fill="#6296d0"/><path d="M327.206,55.993h4.365V71.575h7.649v3.653H327.206Z" transform="translate(125.392 21.457)" fill="#6296d0"/><path d="M346.357,70.291l-1.369,4.937h-4.511l5.88-19.235h5.707l5.966,19.235h-4.681l-1.484-4.937Zm4.88-3.253-1.2-4.082c-.342-1.141-.685-2.567-.97-3.708h-.057c-.286,1.141-.571,2.6-.885,3.708l-1.141,4.082Z" transform="translate(130.478 21.457)" fill="#6296d0"/><path d="M358.639,75.228V55.993h5.079l4,7.049a56.086,56.086,0,0,1,3.14,6.592h.084a71.493,71.493,0,0,1-.371-8.02V55.993h4V75.228H370l-4.108-7.421a70.817,70.817,0,0,1-3.339-6.792l-.086.029c.113,2.54.172,5.251.172,8.391v5.793Z" transform="translate(137.438 21.457)" fill="#6296d0"/><path d="M392.8,74.4a21.534,21.534,0,0,1-6.421,1.084c-3.511,0-6.05-.885-7.821-2.6a9.308,9.308,0,0,1-2.711-6.991c.029-6.393,4.681-10.046,10.988-10.046a13.226,13.226,0,0,1,5.336.942l-.913,3.482a10.658,10.658,0,0,0-4.48-.829c-3.625,0-6.364,2.055-6.364,6.223,0,3.967,2.483,6.306,6.05,6.306a5.82,5.82,0,0,0,2.14-.285V67.664h-2.968v-3.4H392.8Z" transform="translate(144.034 21.402)" fill="#6296d0"/><path d="M398.013,55.993V67.067c0,3.31,1.255,4.993,3.482,4.993,2.284,0,3.538-1.6,3.538-4.993V55.993h4.338V66.781c0,5.937-3,8.761-8.018,8.761-4.852,0-7.706-2.682-7.706-8.818V55.993Z" transform="translate(150.853 21.457)" fill="#6296d0"/><path d="M415.6,70.291l-1.369,4.937h-4.511l5.88-19.235h5.707l5.966,19.235H422.6l-1.484-4.937Zm4.88-3.253-1.2-4.082c-.342-1.141-.685-2.567-.97-3.708h-.057c-.286,1.141-.571,2.6-.885,3.708l-1.141,4.082Z" transform="translate(157.015 21.457)" fill="#6296d0"/><path d="M443.684,74.4a21.533,21.533,0,0,1-6.421,1.084c-3.511,0-6.05-.885-7.821-2.6a9.309,9.309,0,0,1-2.711-6.991c.029-6.393,4.681-10.046,10.988-10.046a13.225,13.225,0,0,1,5.336.942l-.913,3.482a10.658,10.658,0,0,0-4.48-.829c-3.625,0-6.364,2.055-6.364,6.223,0,3.967,2.483,6.306,6.05,6.306a5.82,5.82,0,0,0,2.14-.285V67.664H436.52v-3.4h7.164Z" transform="translate(163.532 21.402)" fill="#6296d0"/><path d="M456.5,67.095h-7.078v4.566h7.905v3.567H445.059V55.993h11.872V59.56h-7.507v3.995H456.5Z" transform="translate(170.556 21.457)" fill="#6296d0"/><path d="M531.706,55.6h19.138V49.776H538.661V24.955h-6.955ZM512.431,29.956c4.773,0,7.41,4.728,7.41,10.229,0,5.953-2.682,10.41-7.364,10.41-4.638,0-7.456-4.229-7.456-10.229,0-5.956,2.728-10.41,7.41-10.41m.183-5.5c-9.048,0-14.911,6.862-14.911,16.045,0,8.728,5.318,15.593,14.41,15.593,8.956,0,15.047-6.092,15.047-16.137,0-8.457-5.137-15.5-14.546-15.5m-32.777,5.5c4.773,0,7.409,4.728,7.409,10.229,0,5.953-2.681,10.41-7.363,10.41-4.638,0-7.456-4.229-7.456-10.229,0-5.956,2.726-10.41,7.41-10.41m.181-5.5c-9.045,0-14.91,6.862-14.91,16.045,0,8.728,5.318,15.593,14.41,15.593,8.956,0,15.048-6.092,15.048-16.137,0-8.457-5.139-15.5-14.549-15.5m-44.823.5V55.6h6.955V42.775h11.412V55.6h6.911V24.955h-6.911V36.728H442.15V24.955ZM429.6,49.321a17.281,17.281,0,0,1-5.772,1c-6.183,0-9.821-3.863-9.821-10,0-6.819,4.274-10.138,9.774-10.138a14.967,14.967,0,0,1,5.819,1.136l1.409-5.5a18.068,18.068,0,0,0-7.545-1.362c-9.274,0-16.729,5.818-16.729,16.272,0,8.729,5.454,15.322,16.045,15.322a19.735,19.735,0,0,0,7.866-1.32Zm-47.186,4.865A20.05,20.05,0,0,0,391.1,56.05c8.411,0,12.366-4.365,12.366-9.5,0-4.32-2.545-7.137-7.955-9.139-3.956-1.5-5.682-2.364-5.682-4.317,0-1.592,1.454-2.956,4.454-2.956a14.568,14.568,0,0,1,6.41,1.455L402.238,26a18.791,18.791,0,0,0-7.819-1.544c-7.229,0-11.591,4-11.591,9.227,0,4.454,3.318,7.274,8.41,9.045,3.682,1.318,5.136,2.41,5.136,4.321,0,2-1.682,3.318-4.865,3.318a17.666,17.666,0,0,1-7.681-1.91Z" transform="translate(146.55 9.372)" fill="#005dac"/><path d="M154.435,24.687h6.995V49.651h12.254V55.5H154.435Z" transform="translate(59.183 9.46)" fill="#005dac"/><path d="M174.479,30.539H166.2V24.687h23.684v5.852h-8.413V55.5h-6.995Z" transform="translate(63.692 9.46)" fill="#005dac"/><path d="M186,24.687H193V49.651h12.254V55.5H186Z" transform="translate(71.28 9.46)" fill="#005dac"/><path d="M209.572,24.687h6.995V49.651h12.254V55.5H209.572Z" transform="translate(80.312 9.46)" fill="#005dac"/><path d="M234.461,47.593l-2.2,7.911h-7.223l9.418-30.817h9.144L253.161,55.5h-7.5l-2.378-7.911Zm7.818-5.212-1.92-6.538c-.549-1.829-1.1-4.114-1.555-5.944h-.091c-.456,1.83-.914,4.161-1.418,5.944l-1.829,6.538Z" transform="translate(86.241 9.46)" fill="#005dac"/><path d="M248.347,55.5V24.688h8.139l6.4,11.293a89.262,89.262,0,0,1,5.029,10.561h.137a114.836,114.836,0,0,1-.593-12.893V24.688h6.4V55.5h-7.314l-6.584-11.887a114.32,114.32,0,0,1-5.349-10.882l-.138.046c.183,4.069.274,8.413.274,13.442V55.5Z" transform="translate(95.172 9.461)" fill="#005dac"/><path d="M297.289,54.174A34.481,34.481,0,0,1,287,55.912c-5.624,0-9.694-1.418-12.528-4.161a14.912,14.912,0,0,1-4.343-11.2c.046-10.241,7.5-16.094,17.6-16.094a21.225,21.225,0,0,1,8.55,1.509l-1.463,5.577a17.075,17.075,0,0,0-7.178-1.325c-5.807,0-10.2,3.292-10.2,9.966,0,6.356,3.977,10.1,9.692,10.1a9.34,9.34,0,0,0,3.429-.456V43.384h-4.754v-5.44h11.475Z" transform="translate(103.519 9.372)" fill="#005dac"/><path d="M300.662,24.687v17.74c0,5.3,2.011,8,5.579,8,3.657,0,5.67-2.559,5.67-8V24.687h6.948V41.97c0,9.51-4.8,14.036-12.847,14.036-7.772,0-12.344-4.3-12.344-14.128V24.687Z" transform="translate(112.539 9.46)" fill="#005dac"/><path d="M323.051,47.593l-2.2,7.911h-7.223l9.418-30.817H332.2L341.751,55.5h-7.5l-2.378-7.911Zm7.818-5.212-1.92-6.538c-.549-1.829-1.1-4.114-1.555-5.944H327.3c-.456,1.83-.914,4.161-1.418,5.944l-1.829,6.538Z" transform="translate(120.191 9.46)" fill="#005dac"/><path d="M362.244,54.174a34.48,34.48,0,0,1-10.287,1.737c-5.624,0-9.694-1.418-12.528-4.161a14.913,14.913,0,0,1-4.343-11.2c.046-10.241,7.5-16.094,17.6-16.094a21.225,21.225,0,0,1,8.55,1.509l-1.464,5.577a17.075,17.075,0,0,0-7.177-1.325c-5.807,0-10.2,3.292-10.2,9.966,0,6.356,3.977,10.1,9.692,10.1a9.341,9.341,0,0,0,3.429-.456V43.384h-4.754v-5.44h11.475Z" transform="translate(128.412 9.372)" fill="#005dac"/><path d="M376.99,42.472H365.65v7.316h12.666V55.5H358.655V24.687h19.021V30.4H365.65v6.4h11.34Z" transform="translate(137.444 9.46)" fill="#005dac"/></g></g></g></g></svg>